<svg width="16" height="17" viewBox="0 0 16 17" fill="none" xmlns="http://www.w3.org/2000/svg">
<path d="M3.00293 0.549224C2.29397 0.677362 1.61312 1.04303 1.07906 1.57746C0.535624 2.12439 0.176459 2.79946 0.0515323 3.52766C-0.0171774 3.92457 -0.0171774 13.0818 0.0515323 13.4787C0.104626 13.7787 0.245169 14.2069 0.388835 14.4882C0.726137 15.1601 1.35077 15.782 2.0285 16.1258C2.31271 16.2696 2.82178 16.4321 3.11224 16.4727C3.29026 16.4977 4.74253 16.504 8.15616 16.4977C12.9377 16.4852 12.9502 16.4852 13.1845 16.4196C13.9278 16.2102 14.4244 15.9258 14.9209 15.4289C15.4644 14.882 15.8235 14.2069 15.9485 13.4787C16.0172 13.0818 16.0172 3.92457 15.9485 3.52766C15.8235 2.79946 15.4644 2.12439 14.9209 1.57746C14.3744 1.03365 13.6998 0.674237 12.9721 0.549224C12.5942 0.483593 3.36834 0.483593 3.00293 0.549224ZM8.37166 4.60589C8.44037 4.65277 8.53718 4.74966 8.58403 4.82154L8.67148 4.9528L8.6871 6.31544C8.69959 7.40931 8.71208 7.69059 8.74644 7.73121C8.78392 7.7781 8.91821 7.78435 10.1081 7.78435H11.4292L11.5948 7.87185C11.8384 7.99999 11.9446 8.16564 11.9602 8.43754C11.9789 8.74382 11.854 8.95634 11.576 9.10636C11.4542 9.17199 11.4167 9.17511 10.1081 9.18449C8.89947 9.19074 8.76205 9.19699 8.7277 9.24387C8.69647 9.2845 8.6871 9.60953 8.6871 10.6096C8.6871 12.1004 8.69022 12.0785 8.43724 12.2911C8.1749 12.5161 7.8251 12.5161 7.56276 12.2911C7.30978 12.0785 7.3129 12.1004 7.3129 10.6096C7.3129 9.60953 7.30353 9.2845 7.27542 9.24387C7.23795 9.19699 7.10053 9.19074 5.89186 9.18449C4.57701 9.17511 4.54577 9.17511 4.42085 9.10636C4.14601 8.95947 4.01796 8.72194 4.03982 8.40628C4.05856 8.15938 4.17412 7.98749 4.40523 7.86873L4.57701 7.78435H5.89498H7.21608L7.26293 7.71559C7.30666 7.65621 7.3129 7.47181 7.3129 6.33732C7.3129 4.93405 7.3129 4.93093 7.48155 4.73403C7.61897 4.56839 7.79387 4.49651 8.03436 4.50901C8.19676 4.51838 8.26859 4.53714 8.37166 4.60589Z" fill="#97B00F"/>
</svg>
