<svg width="36" height="36" viewBox="0 0 36 36" fill="none" xmlns="http://www.w3.org/2000/svg">
<g id="Group 36985">
<g id="Ellipse 70" filter="url(#filter0_d_415_22793)">
<circle cx="18" cy="18" r="12" fill="#006633"/>
</g>
<g id="Group 115">
<g id="Group 154">
<g id="Group">
<path id="Path 366" fill-rule="evenodd" clip-rule="evenodd" d="M21.5363 21.5315C20.8584 22.185 20.0186 22.6452 19.1037 22.8646C18.5838 23.0031 18.0416 23.0358 17.5089 22.9607C16.9763 22.8857 16.4641 22.7044 16.0025 22.4277L15.8922 22.3599L15.8664 22.3456C15.8589 22.3425 15.8511 22.3401 15.8432 22.3385C15.8343 22.3375 15.8254 22.3375 15.8165 22.3385H15.796L15.6972 22.3635H15.6848C15.4035 22.4366 15.1747 22.4954 14.9914 22.5302C14.8162 22.5708 14.6349 22.5771 14.4573 22.5489C14.2119 22.4989 13.9866 22.3775 13.8095 22.2001C13.6324 22.0227 13.5113 21.797 13.4613 21.5511C13.433 21.3733 13.4394 21.1916 13.48 21.0161C13.5147 20.8315 13.5734 20.6033 13.6464 20.3215V20.309C13.6589 20.2609 13.666 20.2314 13.6713 20.21C13.6767 20.1886 13.6713 20.1886 13.6713 20.1886C13.6742 20.1719 13.6717 20.1548 13.6642 20.1396C13.6642 20.1396 13.6598 20.1307 13.65 20.1137C13.6402 20.0968 13.6153 20.0558 13.5823 20.0041C13.3045 19.5459 13.121 19.0366 13.0429 18.5062C12.9648 17.9759 12.9935 17.4352 13.1275 16.9162C13.3503 15.9913 13.8187 15.144 14.4831 14.464C15.4187 13.5267 16.6876 13.0001 18.0107 13C19.3339 12.9999 20.6029 13.5264 21.5386 14.4636C22.4742 15.4008 22.9999 16.672 23 17.9975C23.0001 19.323 22.4745 20.5942 21.539 21.5315H21.5363Z" fill="#2B2F2D"/>
</g>
<path id="20220831143623_IMG_4810 (1) (1) (1)" d="M19.967 18.7842C20.3996 18.7842 20.7503 18.4329 20.7503 17.9995C20.7503 17.5662 20.3996 17.2148 19.967 17.2148C19.5344 17.2148 19.1837 17.5662 19.1837 17.9995C19.1837 18.4329 19.5344 18.7842 19.967 18.7842Z" fill="#006633"/>
<path id="20220831143623_IMG_4810 (1) (1) (1)_2" d="M18.0089 18.7842C18.4415 18.7842 18.7922 18.4329 18.7922 17.9995C18.7922 17.5662 18.4415 17.2148 18.0089 17.2148C17.5763 17.2148 17.2256 17.5662 17.2256 17.9995C17.2256 18.4329 17.5763 18.7842 18.0089 18.7842Z" fill="#006633"/>
<path id="20220831143623_IMG_4810 (1) (1) (1)_3" d="M16.0509 18.7842C16.4835 18.7842 16.8342 18.4329 16.8342 17.9995C16.8342 17.5662 16.4835 17.2148 16.0509 17.2148C15.6183 17.2148 15.2676 17.5662 15.2676 17.9995C15.2676 18.4329 15.6183 18.7842 16.0509 18.7842Z" fill="#006633"/>
</g>
</g>
</g>
<defs>
<filter id="filter0_d_415_22793" x="0" y="0" width="36" height="36" filterUnits="userSpaceOnUse" color-interpolation-filters="sRGB">
<feFlood flood-opacity="0" result="BackgroundImageFix"/>
<feColorMatrix in="SourceAlpha" type="matrix" values="0 0 0 0 0 0 0 0 0 0 0 0 0 0 0 0 0 0 127 0" result="hardAlpha"/>
<feOffset/>
<feGaussianBlur stdDeviation="3"/>
<feComposite in2="hardAlpha" operator="out"/>
<feColorMatrix type="matrix" values="0 0 0 0 0.223529 0 0 0 0 0.792157 0 0 0 0 0.356863 0 0 0 0.5 0"/>
<feBlend mode="normal" in2="BackgroundImageFix" result="effect1_dropShadow_415_22793"/>
<feBlend mode="normal" in="SourceGraphic" in2="effect1_dropShadow_415_22793" result="shape"/>
</filter>
</defs>
</svg>
