<svg width="18" height="18" viewBox="0 0 18 18" fill="none" xmlns="http://www.w3.org/2000/svg">
<g clip-path="url(#clip0_415_21599)">
<path d="M8.00508 0.791307C6.24727 1.00576 4.55626 1.80732 3.29063 3.02725C2.80548 3.49482 2.49962 3.85342 2.13048 4.40537C1.45196 5.41084 0.991413 6.62021 0.801569 7.89287C0.731256 8.38154 0.741803 9.73154 0.819147 10.2132C1.06524 11.7038 1.63829 13.0257 2.52071 14.1437C2.77735 14.4706 3.52969 15.2229 3.85665 15.4796C4.9711 16.3585 6.31055 16.9386 7.78712 17.1812C8.33204 17.269 9.66798 17.269 10.2129 17.1812C11.9953 16.8894 13.4965 16.1476 14.741 14.9452C16.1508 13.5812 17.0332 11.7565 17.2301 9.79131C17.2793 9.27803 17.2547 8.24795 17.1738 7.75225C16.5797 4.01514 13.5914 1.171 9.83673 0.773729C9.38321 0.728027 8.47618 0.735058 8.00508 0.791307ZM9.37266 3.88506C9.46758 3.94131 9.56251 4.03975 9.62227 4.1417L9.72071 4.30693L9.73126 6.5042L9.7418 8.70146L10.7895 9.75615C11.366 10.3362 11.8688 10.8671 11.9039 10.9339C11.9426 11.0077 11.9672 11.1343 11.9672 11.2503C11.9707 11.8022 11.366 12.1538 10.8984 11.8761C10.7051 11.7601 8.43399 9.48545 8.3461 9.3167C8.28282 9.20068 8.2793 9.06357 8.2793 6.75029V4.30693L8.37423 4.1417C8.58868 3.7831 9.01055 3.67412 9.37266 3.88506Z" fill="#96B032"/>
</g>
<defs>
<clipPath id="clip0_415_21599">
<rect width="18" height="18" fill="white"/>
</clipPath>
</defs>
</svg>
