<svg width="16" height="16" viewBox="0 0 16 16" fill="none" xmlns="http://www.w3.org/2000/svg">
<g clip-path="url(#clip0_573_19250)">
<path d="M7.375 0.409222C5.68125 0.524847 4.13125 1.1061 2.76562 2.13422C2.44375 2.37797 1.65937 3.16235 1.41562 3.48422C0.70625 4.42485 0.284375 5.38422 0.075 6.51547C0.00625 6.8811 -0.01875 7.9561 0.028125 8.3311C0.1625 9.3811 0.525 10.3873 1.0625 11.2155L1.25625 11.5123L1.21875 11.8217C1.04687 13.3155 0.671875 14.4311 0.134375 15.0467C0.021875 15.1748 0 15.2248 0 15.3311C0 15.4655 0.075 15.5655 0.20625 15.6061C0.365625 15.653 1.91562 15.303 2.76875 15.028C3.375 14.8311 4.07812 14.5467 4.45312 14.3467L4.7375 14.1967L4.98437 14.2873C5.8875 14.6217 6.9875 14.8123 8 14.8123C12.0969 14.8123 15.5562 12.0092 15.9719 8.34985C16.0187 7.92172 15.9937 6.88735 15.925 6.51547C15.7156 5.3811 15.2969 4.42797 14.5844 3.48422C14.3406 3.16235 13.5562 2.37797 13.2344 2.13422C11.8437 1.08735 10.3312 0.527972 8.55937 0.406096C8.05937 0.371722 7.89687 0.371722 7.375 0.409222ZM4.63437 6.62485C5.03125 6.77485 5.3125 7.18422 5.3125 7.6186C5.3125 8.22172 4.68437 8.74672 4.1 8.62797C3.85937 8.5811 3.675 8.47797 3.5125 8.3061C3.33125 8.11235 3.24375 7.91235 3.22812 7.6561C3.19687 7.21235 3.49375 6.7686 3.93125 6.60922C4.10937 6.5436 4.4375 6.55297 4.63437 6.62485ZM8.45312 6.66235C9.0875 6.99047 9.23437 7.81547 8.74687 8.31547C8.53125 8.53735 8.3 8.63735 8 8.63735C7.8125 8.63735 7.72812 8.6186 7.58437 8.55297C7.05312 8.30922 6.8125 7.69047 7.05625 7.17797C7.19062 6.8936 7.42187 6.68735 7.71875 6.59047C7.7625 6.57485 7.90937 6.5686 8.04687 6.57485C8.24062 6.5811 8.33125 6.59985 8.45312 6.66235ZM12.1594 6.64985C12.3906 6.76235 12.55 6.92172 12.6625 7.14985C12.7531 7.33422 12.7656 7.38735 12.7656 7.60922C12.7625 7.91235 12.6969 8.08422 12.4875 8.3061C12.0625 8.75922 11.4062 8.7561 10.9719 8.29672C10.7219 8.03422 10.6281 7.66235 10.725 7.3311C10.8156 7.0186 11.0656 6.74047 11.3562 6.62485C11.575 6.53735 11.9562 6.54985 12.1594 6.64985Z" fill="#97B00F"/>
</g>
<defs>
<clipPath id="clip0_573_19250">
<rect width="16" height="16" fill="white"/>
</clipPath>
</defs>
</svg>
