<svg width="14" height="15" viewBox="0 0 14 15" fill="none" xmlns="http://www.w3.org/2000/svg">
<g clip-path="url(#clip0_573_19244)">
<path d="M0.144922 0.855469C0.0984375 0.882812 0.04375 0.932032 0.0300781 0.96211C0.00820312 1.00039 0 2.38125 0 5.49023C0 9.65742 0.00273437 9.96641 0.0464844 10.0348C0.142187 10.1797 0.144922 10.1797 1.85938 10.1797H3.44531V5.49023V0.800781H1.84023C0.295312 0.800781 0.229687 0.803515 0.144922 0.855469Z" fill="#97B00F"/>
<path d="M5.70938 0.822656C5.68477 0.833592 5.30742 1.15625 4.86992 1.53906L4.07695 2.23633L4.07422 5.72266V9.20898L4.43789 9.48242C6.72656 11.2105 8.42734 12.7254 9.13555 13.6715C9.46367 14.109 9.57578 14.1828 9.91211 14.1855C10.1773 14.1855 10.3168 14.1281 10.5437 13.9176C11.1754 13.3434 11.4898 12.0363 11.1562 11.3828C11.1262 11.3227 10.9785 11.093 10.8309 10.8715C10.5602 10.4668 9.93398 9.46328 9.90664 9.39766C9.8957 9.37031 10.1746 9.35937 11.3668 9.35391C12.8023 9.3457 12.8434 9.34297 13.0184 9.28281C13.3793 9.1625 13.6965 8.88633 13.8605 8.55547C13.9699 8.33398 13.9973 8.1918 14 7.88828C14 7.50273 13.8824 7.19648 13.6254 6.92305L13.5078 6.79727L13.5953 6.71797C13.7266 6.59492 13.8852 6.33242 13.9453 6.13828C14.0109 5.92773 14.0191 5.53398 13.9617 5.32344C13.8715 4.98164 13.6062 4.63437 13.3109 4.46758L13.1578 4.38008L13.2398 4.20234C13.5133 3.61719 13.3137 2.92812 12.7668 2.57539C12.693 2.52891 12.6328 2.48789 12.6328 2.48242C12.6328 2.47969 12.6574 2.4168 12.6902 2.3457C12.7805 2.14336 12.7914 1.83711 12.7176 1.59922C12.6055 1.22734 12.2719 0.904687 11.9191 0.830858C11.766 0.798046 5.78867 0.789843 5.70938 0.822656Z" fill="#97B00F"/>
</g>
<defs>
<clipPath id="clip0_573_19244">
<rect width="14" height="14" fill="white" transform="translate(0 0.5)"/>
</clipPath>
</defs>
</svg>
