<svg width="14" height="15" viewBox="0 0 14 15" fill="none" xmlns="http://www.w3.org/2000/svg">
<path d="M2.46089 1.11517C2.00151 1.20541 1.56675 1.44876 1.22495 1.80697C0.894092 2.15423 0.683545 2.56439 0.604248 3.0265C0.563232 3.25345 0.563232 11.7464 0.604248 11.9734C0.61792 12.0609 0.66167 12.2277 0.699951 12.3398C0.899561 12.9523 1.4519 13.5292 2.06167 13.7644C2.49917 13.9339 2.28042 13.9257 6.99722 13.9257C9.89019 13.9257 11.364 13.9175 11.4734 13.8956C11.5609 13.882 11.7277 13.8382 11.8398 13.7999C12.4523 13.6003 13.0292 13.048 13.2644 12.4382C13.4339 12.0007 13.4257 12.2195 13.4257 7.50267C13.4257 4.6097 13.4175 3.13587 13.3957 3.0265C13.3109 2.53431 13.1003 2.13783 12.7312 1.76869C12.3621 1.39955 11.9656 1.189 11.4734 1.10423C11.2136 1.05775 2.69331 1.06869 2.46089 1.11517ZM9.80815 4.9597C9.97768 5.01165 10.1718 5.29056 10.1718 5.48744C10.1718 5.70072 10.1855 5.68705 8.27417 7.60658C7.01909 8.86439 6.40386 9.46322 6.33003 9.49876C6.18784 9.56439 6.00737 9.56439 5.86245 9.49603C5.7312 9.43041 3.98394 7.64486 3.9019 7.489C3.78433 7.26751 3.81987 7.0433 4.00308 6.85189C4.14526 6.69876 4.323 6.64408 4.52808 6.68509C4.65659 6.7097 4.69214 6.73978 5.373 7.43431C5.76401 7.8308 6.09761 8.15619 6.11128 8.15619C6.12495 8.15619 6.85776 7.43705 7.73823 6.55931C9.24214 5.05814 9.34604 4.9597 9.46089 4.93509C9.58667 4.90775 9.6523 4.91322 9.80815 4.9597Z" fill="#97B00F"/>
</svg>
