<svg width="4" height="12" viewBox="0 0 4 12" fill="none" xmlns="http://www.w3.org/2000/svg">
<g id="Group 117">
<path id="20220831143623_IMG_4810 (1) (1) (1)" d="M3.99998 1.71424C3.99998 0.767371 3.23238 -0.000221729 2.28551 -0.000221729C1.33864 -0.000221729 0.571045 0.767371 0.571045 1.71424C0.571045 2.66112 1.33864 3.42871 2.28551 3.42871C3.23238 3.42871 3.99998 2.66112 3.99998 1.71424Z" fill="#99A1BE"/>
<path id="20220831143623_IMG_4810 (1) (1) (1)_2" d="M3.99998 6.00038C3.99998 5.0535 3.23238 4.28591 2.28551 4.28591C1.33864 4.28591 0.571045 5.0535 0.571045 6.00038C0.571045 6.94725 1.33864 7.71484 2.28551 7.71484C3.23238 7.71484 3.99998 6.94725 3.99998 6.00038Z" fill="#99A1BE"/>
<path id="20220831143623_IMG_4810 (1) (1) (1)_3" d="M3.99998 10.2855C3.99998 9.33866 3.23238 8.57107 2.28551 8.57107C1.33864 8.57107 0.571045 9.33866 0.571045 10.2855C0.571045 11.2324 1.33864 12 2.28551 12C3.23238 12 3.99998 11.2324 3.99998 10.2855Z" fill="#99A1BE"/>
</g>
</svg>
