<svg width="34" height="34" viewBox="0 0 34 34" fill="none" xmlns="http://www.w3.org/2000/svg">
<path d="M34 17C34 26.3888 26.3888 34 17 34C7.61116 34 0 26.3888 0 17C0 7.61116 7.61116 0 17 0C26.3888 0 34 7.61116 34 17Z" fill="#454A48"/>
<path d="M13.5125 9.92305C13.4562 9.93008 13.4141 9.94766 13.4141 9.96172C13.4141 9.97578 14.1312 10.7035 15.0066 11.5789L16.5957 13.168H17.8086H19.0215L17.3867 11.5332L15.752 9.89844L14.6797 9.90195C14.0891 9.90547 13.5652 9.91602 13.5125 9.92305Z" fill="#97B00F"/>
<path d="M19.1797 11.5297L20.8145 13.168H22.4211C23.6867 13.168 24.0312 13.1574 24.0312 13.1223C24.0312 13.0098 23.8484 12.4156 23.7395 12.1766C23.5355 11.7301 23.307 11.4137 22.9098 11.0234C22.3613 10.482 21.8094 10.1797 21.0465 9.99688C20.7723 9.93008 20.6 9.92305 19.1445 9.90898L17.5449 9.89492L19.1797 11.5297Z" fill="#97B00F"/>
<path d="M11.7758 10.4715C11.4488 10.6789 11.2484 10.8441 10.9742 11.1289C10.6508 11.4664 10.4223 11.8109 10.243 12.2258C10.1305 12.4895 9.96875 13.0168 9.96875 13.1293C9.96875 13.1574 10.6754 13.168 12.3945 13.168C13.7305 13.168 14.8203 13.1574 14.8203 13.1398C14.8203 13.0871 12.057 10.3555 12.0078 10.359C11.9797 10.359 11.8742 10.4117 11.7758 10.4715Z" fill="#97B00F"/>
<path d="M9.90908 17.5519C9.91963 20.5929 9.92314 20.7195 9.99346 21.0254C10.2958 22.3437 11.2204 23.4019 12.4579 23.8554C13.1048 24.091 12.9747 24.084 17.0177 24.084C20.6212 24.084 20.6774 24.084 21.0079 24.0101C21.8095 23.8308 22.3544 23.5285 22.9415 22.9414C23.5216 22.3613 23.8239 21.8164 24.0067 21.0254C24.0771 20.7195 24.0806 20.5929 24.0911 17.5519L24.1052 14.3984H17.0001H9.89502L9.90908 17.5519ZM17.5802 16.8347C18.5083 17.3445 19.3169 17.8086 19.3767 17.8683C19.5911 18.0793 19.5981 18.4484 19.3978 18.684C19.2923 18.8035 16.0649 20.5965 15.8435 20.6562C15.5938 20.723 15.295 20.5824 15.172 20.3398C15.1052 20.2062 15.1017 20.1254 15.1017 18.2761V16.3496L15.1825 16.209C15.288 16.0226 15.4884 15.9101 15.7169 15.9101C15.8856 15.9101 16.0017 15.9664 17.5802 16.8347Z" fill="#97B00F"/>
</svg>
