<svg width="34" height="34" viewBox="0 0 34 34" fill="none" xmlns="http://www.w3.org/2000/svg">
<circle cx="17" cy="17" r="17" fill="#454A48"/>
<g clip-path="url(#clip0_2178_24860)">
<path d="M14.532 8.05633C10.7773 8.60125 8.04921 11.9833 8.31639 15.7626C8.50272 18.4063 10.0496 20.688 12.4367 21.8305C13.9801 22.5723 15.7273 22.7481 17.3937 22.3263C18.0828 22.1505 18.9441 21.7778 19.4855 21.4157L19.7246 21.2575L19.9601 21.493C20.0902 21.6231 21.0887 22.6532 22.175 23.7817C23.4582 25.1141 24.2035 25.863 24.2949 25.9087C24.3898 25.9579 24.5234 25.986 24.7098 25.993C24.9488 26.0071 25.0051 25.9966 25.1738 25.9157C25.5113 25.747 25.6976 25.4446 25.6976 25.0438C25.6976 24.636 25.7117 24.6536 23.3808 22.2348C22.2207 21.029 21.2504 20.02 21.2293 19.9848C21.1906 19.9356 21.2012 19.904 21.2961 19.7915C21.5105 19.5208 21.8973 18.9091 22.0801 18.547C22.4246 17.8579 22.6707 17.088 22.7867 16.318C22.8711 15.7731 22.8711 14.7641 22.7867 14.2052C22.5863 12.8868 22.0273 11.6247 21.2012 10.6403C19.9988 9.20594 18.4062 8.31297 16.5711 8.05281C16.114 7.98602 14.9961 7.98953 14.532 8.05633ZM16.332 9.97234C17.8402 10.1763 19.2887 11.122 20.1219 12.4473C20.7195 13.4036 21.0113 14.6059 20.9058 15.7028C20.7512 17.3657 19.9004 18.8071 18.5328 19.7177C16.7504 20.9095 14.4371 20.913 12.6476 19.7317C10.6191 18.3923 9.74374 15.8997 10.4961 13.6216C10.7738 12.7813 11.1746 12.1345 11.8144 11.4981C13.0308 10.2782 14.6199 9.74383 16.332 9.97234Z" fill="#97B00F"/>
</g>
<defs>
<clipPath id="clip0_2178_24860">
<rect width="18" height="18" fill="white" transform="translate(8 8)"/>
</clipPath>
</defs>
</svg>
