<svg width="18" height="21" viewBox="0 0 18 21" fill="none" xmlns="http://www.w3.org/2000/svg">
<path d="M5.24509 0.0613842C4.72308 0.221567 4.27841 0.533716 4.0609 0.895151C3.80956 1.3182 3.81923 1.00194 3.81923 7.55706C3.81923 14.2436 3.83856 13.8 3.52439 13.9356C3.23922 14.0629 2.89121 13.8904 2.83321 13.5947C2.81871 13.5125 2.80421 13.0402 2.80421 12.5473V11.6479L2.66404 11.5287C2.4707 11.3645 2.15653 11.3604 1.93419 11.5164C1.55235 11.7916 1.06417 12.5432 0.861169 13.1757C0.754833 13.5125 0.75 13.5783 0.75 15.0856C0.754833 16.6381 0.754833 16.6463 0.880503 17.0406C1.31068 18.3796 2.14686 19.3776 3.45672 20.1005C4.14307 20.4784 4.72792 20.692 5.58343 20.8809L6.11511 21H9.54685C12.9738 21 12.9786 21 13.3894 20.9055C13.9114 20.7864 14.7718 20.4291 15.1778 20.1662C16.1252 19.5543 16.7873 18.7246 17.1015 17.743L17.2272 17.3446L17.2465 14.5106C17.2562 12.5145 17.2465 11.6027 17.2078 11.4302C17.1305 11.0811 16.855 10.6293 16.5602 10.3664C16.2363 10.083 11.3594 7.31474 10.9534 7.18331C10.5087 7.04366 10.2525 7.00259 9.76436 7.00259C9.23268 7.00259 8.83634 7.07652 8.36749 7.27367C8.19349 7.34349 8.03399 7.4092 8.01465 7.41742C7.99049 7.42563 7.97599 6.09489 7.97599 4.45611C7.97599 1.6057 7.97115 1.46605 7.87932 1.21551C7.70048 0.722647 7.33314 0.365318 6.77246 0.14353C6.49212 0.0285263 6.39545 0.0120983 5.97011 0.00388336C5.59794 -0.00843811 5.42876 0.00799179 5.24509 0.0613842Z" fill="#0B2310"/>
</svg>
