<svg width="40" height="40" viewBox="0 0 40 40" fill="none" xmlns="http://www.w3.org/2000/svg">
<rect width="40" height="40" rx="20" fill="#97B00F"/>
<path d="M28.7806 20.5307L22.0306 27.2807C21.8899 27.4214 21.699 27.5005 21.5 27.5005C21.301 27.5005 21.1101 27.4214 20.9694 27.2807C20.8286 27.1399 20.7496 26.9491 20.7496 26.7501C20.7496 26.551 20.8286 26.3602 20.9694 26.2194L26.4397 20.7501H11.75C11.5511 20.7501 11.3603 20.671 11.2197 20.5304C11.079 20.3897 11 20.199 11 20.0001C11 19.8011 11.079 19.6104 11.2197 19.4697C11.3603 19.3291 11.5511 19.2501 11.75 19.2501H26.4397L20.9694 13.7807C20.8286 13.6399 20.7496 13.4491 20.7496 13.2501C20.7496 13.051 20.8286 12.8602 20.9694 12.7194C21.1101 12.5787 21.301 12.4996 21.5 12.4996C21.699 12.4996 21.8899 12.5787 22.0306 12.7194L28.7806 19.4694C28.8504 19.5391 28.9057 19.6218 28.9434 19.7128C28.9812 19.8039 29.0006 19.9015 29.0006 20.0001C29.0006 20.0986 28.9812 20.1962 28.9434 20.2873C28.9057 20.3783 28.8504 20.461 28.7806 20.5307Z" fill="#FEFEFE"/>
</svg>
