<svg width="40" height="40" viewBox="0 0 40 40" fill="none" xmlns="http://www.w3.org/2000/svg">
<rect x="0.5" y="0.5" width="39" height="39" rx="19.5" stroke="#97B00F"/>
<path d="M32.0001 19.9999C32.0001 20.2652 31.8947 20.5195 31.7072 20.7071C31.5196 20.8946 31.2653 20.9999 31.0001 20.9999H11.4138L18.7076 28.2924C18.8005 28.3854 18.8742 28.4957 18.9244 28.6171C18.9747 28.7384 19.0006 28.8686 19.0006 28.9999C19.0006 29.1313 18.9747 29.2614 18.9244 29.3828C18.8742 29.5042 18.8005 29.6145 18.7076 29.7074C18.6146 29.8004 18.5043 29.8741 18.383 29.9243C18.2616 29.9746 18.1314 30.0005 18.0001 30.0005C17.8687 30.0005 17.7386 29.9746 17.6172 29.9243C17.4958 29.8741 17.3855 29.8004 17.2926 29.7074L8.29255 20.7074C8.19958 20.6146 8.12582 20.5043 8.07549 20.3829C8.02517 20.2615 7.99927 20.1314 7.99927 19.9999C7.99927 19.8685 8.02517 19.7384 8.07549 19.617C8.12582 19.4956 8.19958 19.3853 8.29255 19.2924L17.2926 10.2924C17.4802 10.1048 17.7347 9.99939 18.0001 9.99939C18.2654 9.99939 18.5199 10.1048 18.7076 10.2924C18.8952 10.4801 19.0006 10.7346 19.0006 10.9999C19.0006 11.2653 18.8952 11.5198 18.7076 11.7074L11.4138 18.9999H31.0001C31.2653 18.9999 31.5196 19.1053 31.7072 19.2928C31.8947 19.4804 32.0001 19.7347 32.0001 19.9999Z" fill="#97B00F"/>
</svg>
