<svg width="14" height="15" viewBox="0 0 14 15" fill="none" xmlns="http://www.w3.org/2000/svg">
<path d="M5.81266 0.551921C5.67633 0.631198 5.60198 0.756948 5.59888 0.904568C5.59888 1.01392 5.64225 1.1096 5.88082 1.52785C6.19685 2.08826 6.25881 2.14567 6.53146 2.1484C6.8165 2.15114 7.0024 1.98985 7.0024 1.73561C7.0024 1.61806 6.96522 1.53059 6.74214 1.13693C6.42612 0.57379 6.34866 0.49998 6.07911 0.49998C5.95828 0.49998 5.87462 0.516383 5.81266 0.551921Z" fill="#97B00F"/>
<path d="M9.60492 0.519118C9.48098 0.55739 9.36015 0.713211 9.12158 1.13693C8.9109 1.51145 8.86133 1.62353 8.86133 1.72195C8.86133 1.98165 9.05032 2.15114 9.32917 2.1484C9.60182 2.14567 9.65139 2.0992 9.96741 1.55246C10.1223 1.28182 10.2587 1.01392 10.271 0.959244C10.2989 0.822559 10.1998 0.628466 10.0635 0.554656C9.96432 0.502716 9.71955 0.48358 9.60492 0.519118Z" fill="#97B00F"/>
<path d="M3.97526 3.00391C3.85752 3.05585 3.76148 3.17886 3.73359 3.31828C3.70571 3.45223 3.80175 3.64086 3.93808 3.72834C4.04032 3.79121 4.05891 3.79395 4.66308 3.79395C5.25175 3.79395 5.28893 3.79121 5.39427 3.73107C5.68551 3.57252 5.67931 3.17339 5.38498 3.01484C5.29203 2.96563 5.22696 2.96017 4.67857 2.96017C4.18904 2.96017 4.05581 2.96837 3.97526 3.00391Z" fill="#97B00F"/>
<path d="M10.4785 3.01484C10.1842 3.17339 10.178 3.57252 10.4693 3.73107C10.5746 3.79121 10.6118 3.79395 11.2035 3.79395H11.8263L11.9409 3.71467C12.1485 3.57525 12.195 3.38662 12.0773 3.17886C11.9564 2.97657 11.8883 2.96017 11.185 2.96017C10.6366 2.96017 10.5715 2.96563 10.4785 3.01484Z" fill="#97B00F"/>
<path d="M6.80093 3.01774C6.69249 3.07241 6.59335 3.16263 6.56236 3.2337C6.54687 3.27197 6.51899 3.4688 6.50349 3.67109C6.42604 4.69623 6.05115 5.83345 5.5895 6.44854C5.31375 6.81485 4.83662 7.1511 4.13641 7.47368L3.71814 7.66777L3.72434 10.7569L3.73363 13.8487L3.95051 13.9143C4.88929 14.1986 5.75371 14.3817 6.50659 14.4556C7.08907 14.513 10.807 14.5157 11.0487 14.4583C11.7582 14.2915 12.2446 13.6737 12.1238 13.0942C12.1021 13.0012 12.0773 12.8973 12.068 12.8645C12.0494 12.8181 12.0618 12.8044 12.1424 12.788C12.2756 12.7634 12.573 12.5857 12.7156 12.4463C12.8674 12.2987 13.0037 12.039 13.0471 11.8203C13.0811 11.659 13.0595 11.4102 12.9975 11.2243C12.9789 11.1778 12.9913 11.1642 13.0719 11.1478C13.2051 11.1232 13.5025 10.9455 13.6388 10.8115C13.7845 10.6694 13.8991 10.4698 13.9611 10.2511C14.054 9.93948 13.9673 9.53489 13.7535 9.27792L13.6605 9.1631L13.769 9.00728C13.9115 8.80226 13.9735 8.64643 13.9951 8.425C14.0447 7.91927 13.7101 7.44087 13.1524 7.21671C12.8488 7.09369 12.7558 7.08822 10.776 7.08822H8.89537L8.98522 6.87499C9.03169 6.76018 9.09985 6.54148 9.13703 6.39113C9.27646 5.79518 9.3725 4.78644 9.32293 4.4666C9.22069 3.81598 8.75595 3.31571 8.03095 3.07515C7.84815 3.01501 7.7645 3.00681 7.34313 2.99587C7.01161 2.9904 6.84431 2.99587 6.80093 3.01774Z" fill="#97B00F"/>
<path d="M0.257377 7.14565C0.164429 7.18666 0.108659 7.23587 0.0652835 7.31788C0.00021955 7.43269 0.000219549 7.46276 0.000219549 10.8088C0.000219549 14.5731 -0.0152719 14.2998 0.214001 14.4337C0.319343 14.4966 0.328637 14.4966 1.40684 14.4966C2.43857 14.4966 2.50053 14.4938 2.59658 14.4419C2.65235 14.4118 2.72361 14.349 2.75769 14.2998C2.81966 14.2123 2.81966 14.1549 2.81966 10.8116C2.81966 7.04724 2.83205 7.29601 2.62137 7.16206C2.52842 7.10191 2.50673 7.10191 1.45641 7.09371C0.424684 7.08825 0.384407 7.08825 0.257377 7.14565Z" fill="#97B00F"/>
</svg>
