<svg width="18" height="20" viewBox="0 0 18 20" fill="none" xmlns="http://www.w3.org/2000/svg">
<g clip-path="url(#clip0_415_21604)">
<path d="M8.00157 0.0625C5.96251 0.425781 4.23282 1.73047 3.17813 3.69141C2.81954 4.36328 2.52774 5.20312 2.36954 6.03125C2.24298 6.6875 2.21134 7.91406 2.30274 8.65625C2.6297 11.3711 4.14845 14.4922 6.69727 17.6953C7.2422 18.3789 8.51485 19.8008 8.6836 19.918C8.85235 20.0312 9.14766 20.0312 9.31641 19.918C9.48516 19.8008 10.7578 18.3789 11.3027 17.6953C13.8551 14.4883 15.3703 11.3711 15.6973 8.65625C15.7887 7.91406 15.757 6.6875 15.6305 6.03125C15.2508 4.04688 14.2207 2.34375 12.7266 1.23438C12.0445 0.722656 11.127 0.304688 10.2832 0.113281C9.78399 0 8.49727 -0.0273438 8.00157 0.0625ZM9.71368 3.44141C10.466 3.60938 11.0356 3.94531 11.5875 4.55078C12.1184 5.12891 12.4277 5.71094 12.6141 6.48047C12.6949 6.8125 12.7055 6.92969 12.7055 7.5C12.7055 8.07031 12.6949 8.1875 12.6141 8.51953C12.4277 9.28906 12.1184 9.87109 11.5875 10.4492C10.3641 11.7852 8.57813 12.0234 7.08048 11.043C6.64454 10.7617 6.06446 10.1172 5.81134 9.63281C5.09415 8.28125 5.09415 6.70703 5.80782 5.375C6.02227 4.97656 6.43712 4.46484 6.77813 4.17969C7.60782 3.48828 8.70118 3.21094 9.71368 3.44141Z" fill="#96B032"/>
</g>
<defs>
<clipPath id="clip0_415_21604">
<rect width="18" height="20" fill="white"/>
</clipPath>
</defs>
</svg>
