<svg width="16" height="16" viewBox="0 0 16 16" fill="none" xmlns="http://www.w3.org/2000/svg">
<path d="M4.03125 0.0461283C3.4125 0.152386 2.77813 0.386779 2.29063 0.689927C1.09375 1.43998 0.296875 2.6182 0.059375 3.9933C0.003125 4.32458 0 4.51209 0 6.66538C0 9.07807 0.00625 9.19058 0.140625 9.71874C0.478125 11.0657 1.41875 12.2252 2.67188 12.844C3.19375 13.1034 3.62188 13.2221 4.43125 13.3315L4.53125 13.3471V14.5222C4.53125 15.6598 4.53438 15.7004 4.59688 15.8036C4.63125 15.8598 4.70312 15.9286 4.75 15.9536C4.85625 16.0098 5.10313 16.0161 5.19688 15.9661C5.23438 15.9442 5.48438 15.7161 5.75 15.4567C6.01875 15.1973 6.37188 14.8848 6.53438 14.7598C7.475 14.0534 8.54688 13.6003 9.70938 13.419C9.87813 13.394 10.4094 13.3596 10.8906 13.344C11.8031 13.3159 12.0906 13.2815 12.5688 13.144C14.1687 12.6783 15.45 11.3439 15.8594 9.71874C15.9938 9.19058 16 9.07807 16 6.66538C16 4.51209 15.9969 4.32458 15.9406 3.9933C15.5875 1.94315 14.0094 0.383654 11.9375 0.0430031C11.5656 -0.0163765 4.39062 -0.0132523 4.03125 0.0461283ZM4.96875 5.72156C5.5125 5.97783 5.73438 6.63413 5.45 7.15917C5.11562 7.76859 4.29375 7.89048 3.80625 7.39981C3.58125 7.17792 3.51562 7.00603 3.51562 6.65601C3.51562 6.39661 3.52813 6.34036 3.6 6.20285C3.86875 5.69656 4.46563 5.48717 4.96875 5.72156ZM8.4375 5.72156C9.23438 6.09659 9.2375 7.20918 8.44375 7.59983C8.26562 7.68734 8.20625 7.70296 8 7.70296C7.79375 7.70296 7.73438 7.68734 7.55625 7.59983C7.03438 7.34356 6.81563 6.74351 7.05938 6.24035C7.2 5.95283 7.3375 5.81532 7.6125 5.69969C7.8625 5.59655 8.1875 5.60593 8.4375 5.72156ZM11.8344 5.69031C12.05 5.77469 12.2875 5.98408 12.4 6.20285C12.4719 6.34036 12.4844 6.39661 12.4844 6.65601C12.4844 6.90915 12.4719 6.97478 12.4094 7.10917C12.1594 7.61233 11.5469 7.84672 11.0594 7.61858C10.7188 7.46232 10.4938 7.1748 10.4375 6.8279C10.3094 6.04971 11.0906 5.41529 11.8344 5.69031Z" fill="#FEFEFE"/>
</svg>
