<svg width="34" height="34" viewBox="0 0 34 34" fill="none" xmlns="http://www.w3.org/2000/svg">
<path d="M34 17C34 26.3888 26.3888 34 17 34C7.61116 34 0 26.3888 0 17C0 7.61116 7.61116 0 17 0C26.3888 0 34 7.61116 34 17Z" fill="#454A48"/>
<path fill-rule="evenodd" clip-rule="evenodd" d="M17.0414 9C12.5111 9 9 12.3015 9 16.7603C9 19.0927 9.96109 21.108 11.5257 22.5004C11.6568 22.6179 11.736 22.7805 11.7425 22.9559L11.7862 24.3789C11.8008 24.8328 12.2716 25.1274 12.689 24.9455L14.2844 24.2453C14.4203 24.1857 14.5708 24.1744 14.7131 24.2131C15.4461 24.4143 16.2276 24.5205 17.0414 24.5205C21.5718 24.5205 25.0829 21.2191 25.0829 16.7603C25.0829 12.3015 21.5718 9 17.0414 9Z" fill="#97B00F"/>
<path fill-rule="evenodd" clip-rule="evenodd" d="M12.2129 19.1097L14.5754 15.3869C14.9508 14.7954 15.7567 14.6475 16.3198 15.067L18.1984 16.4671C18.3716 16.5957 18.6078 16.5941 18.7793 16.4655L21.3166 14.5527C21.6548 14.2971 22.0982 14.7006 21.87 15.0574L19.5091 18.7786C19.1337 19.3701 18.3279 19.518 17.7648 19.0985L15.8861 17.6984C15.713 17.5698 15.4767 17.5714 15.3052 17.7L12.7663 19.6145C12.4281 19.87 11.9848 19.4666 12.2129 19.1097Z" fill="white"/>
</svg>
