<svg width="53" height="53" viewBox="0 0 53 53" fill="none" xmlns="http://www.w3.org/2000/svg">
<g filter="url(#filter0_d_2178_24938)">
<rect x="6" y="2.5" width="41" height="41" rx="12" fill="url(#paint0_linear_2178_24938)"/>
</g>
<path d="M30.9491 12.135C29.9743 12.4181 29.3906 13.2479 29.3906 14.3607C29.3906 15.171 29.6313 15.7225 30.1789 16.196C30.5941 16.5474 30.9672 16.6743 31.5869 16.6792C31.9841 16.6792 32.1285 16.6548 32.4113 16.5474C33.2959 16.2155 33.7893 15.4394 33.7893 14.3852C33.7953 13.3309 33.3199 12.5694 32.4414 12.2131C32.1345 12.0862 32.0142 12.0667 31.623 12.0667C31.3703 12.0716 31.0695 12.1009 30.9491 12.135Z" fill="#FEFEFE"/>
<path d="M26.1575 12.6821C24.9661 13.0384 24.6772 14.7809 25.6761 15.6594C25.989 15.9328 26.3019 16.0694 26.7171 16.1036C27.1082 16.1378 27.5355 16.0304 27.8424 15.8254C28.7088 15.2446 28.7028 13.7071 27.8243 12.9944C27.4031 12.6528 26.6991 12.521 26.1575 12.6821Z" fill="#FEFEFE"/>
<path d="M22.4355 14.2333C21.5811 14.5554 21.3223 15.5853 21.8699 16.459C22.3633 17.2448 23.4524 17.484 24.1625 16.9617C24.5416 16.6835 24.6559 16.459 24.686 15.9416C24.7161 15.4633 24.6258 15.146 24.3791 14.7995C23.9399 14.1893 23.1576 13.9599 22.4355 14.2333Z" fill="#FEFEFE"/>
<path d="M19.9741 16.6212C19.7454 16.7042 19.4145 17.0068 19.3002 17.2362C19.1678 17.4949 19.1858 18.0416 19.3363 18.3686C19.4927 18.7005 19.8658 19.0617 20.2088 19.2032C20.7202 19.4131 21.3521 19.296 21.7372 18.9201C22.2125 18.4516 22.1343 17.5925 21.5627 17.0312C21.1776 16.6505 20.4254 16.4553 19.9741 16.6212Z" fill="#FEFEFE"/>
<path d="M27.473 16.8061C25.1865 17.0209 23.1165 18.2167 22.1116 19.8957C21.4858 20.9403 21.2752 21.975 21.4497 23.1953C21.54 23.8639 21.9792 27.4124 22.0514 28.0762C22.0875 28.413 22.1417 29.233 22.1718 29.9066C22.232 31.2488 22.2801 31.4831 22.6291 32.0591C23.0082 32.6838 23.64 33.1963 24.4704 33.5429C25.1203 33.8211 25.716 33.9333 26.4982 33.9333C27.2684 33.9333 27.6776 33.8553 28.3696 33.5868C28.7908 33.4208 28.9774 33.3037 29.4226 32.9376C30.229 32.2738 30.578 31.6686 30.6381 30.8095C30.6622 30.4093 30.6261 30.1213 30.3493 28.6863C29.8138 25.8798 29.904 25.255 31.1376 23.4637C32.1786 21.9457 32.4554 21.3356 32.5035 20.4082C32.5456 19.6907 32.4373 19.2563 32.0522 18.6413C31.5889 17.8848 30.6983 17.2503 29.7055 16.9672C28.9894 16.767 28.3756 16.7231 27.473 16.8061Z" fill="#FEFEFE"/>
<defs>
<filter id="filter0_d_2178_24938" x="0.5" y="0.5" width="52" height="52" filterUnits="userSpaceOnUse" color-interpolation-filters="sRGB">
<feFlood flood-opacity="0" result="BackgroundImageFix"/>
<feColorMatrix in="SourceAlpha" type="matrix" values="0 0 0 0 0 0 0 0 0 0 0 0 0 0 0 0 0 0 127 0" result="hardAlpha"/>
<feOffset dy="3.5"/>
<feGaussianBlur stdDeviation="2.75"/>
<feColorMatrix type="matrix" values="0 0 0 0 0 0 0 0 0 0 0 0 0 0 0 0 0 0 0.02 0"/>
<feBlend mode="normal" in2="BackgroundImageFix" result="effect1_dropShadow_2178_24938"/>
<feBlend mode="normal" in="SourceGraphic" in2="effect1_dropShadow_2178_24938" result="shape"/>
</filter>
<linearGradient id="paint0_linear_2178_24938" x1="6" y1="23" x2="47" y2="23" gradientUnits="userSpaceOnUse">
<stop stop-color="#307040"/>
<stop offset="0.455" stop-color="#74B243"/>
<stop offset="0.8" stop-color="#96B032"/>
</linearGradient>
</defs>
</svg>
