<svg width="16" height="20" viewBox="0 0 16 20" fill="none" xmlns="http://www.w3.org/2000/svg">
<path d="M12.922 1.69967C12.3345 1.85202 11.822 2.3403 11.547 3.01217C11.3752 3.43014 11.3314 3.67233 11.3314 4.18014C11.3314 4.55905 11.347 4.68014 11.4189 4.94967C11.8877 6.73092 13.6908 7.26608 14.7502 5.93795C15.6533 4.81295 15.5095 2.95749 14.4502 2.07467C14.022 1.7153 13.4252 1.56686 12.922 1.69967Z" fill="#97B00F"/>
<path d="M1.04691 3.39453C0.578156 3.66406 0.521906 4.50391 0.943781 4.86719L1.07191 4.98047L5.29691 4.99219L9.51878 5L9.65941 4.91016C9.73441 4.85938 9.84066 4.74219 9.89066 4.65234C9.97503 4.5 9.98441 4.45703 9.98441 4.16406C9.98441 3.87109 9.97503 3.82422 9.89378 3.67969C9.83753 3.57812 9.74691 3.48047 9.64691 3.41797L9.48753 3.32031H5.33128C1.35003 3.32031 1.16566 3.32422 1.04691 3.39453Z" fill="#97B00F"/>
<path d="M4.79688 7.57403C4.53437 7.67168 4.45938 7.71465 4.2625 7.8709C3.925 8.14043 3.64375 8.54278 3.5 8.96074L3.44062 9.13653L2.29062 9.14824L1.14062 9.15996L1 9.25762C0.925 9.31231 0.81875 9.4334 0.765625 9.52324C0.68125 9.67949 0.671875 9.72246 0.671875 9.99981C0.671875 10.2772 0.68125 10.3201 0.765625 10.4764C0.81875 10.5662 0.925 10.6873 1 10.742L1.14062 10.8397L2.2875 10.8514L3.43438 10.8631L3.49688 11.035C3.7125 11.6404 4.17188 12.1639 4.6875 12.3865C4.96563 12.5037 5.52813 12.535 5.8125 12.4451C6.72813 12.16 7.34375 11.1756 7.34375 9.99981C7.34375 9.3084 7.14687 8.70293 6.75938 8.21856C6.5125 7.90606 6.175 7.66778 5.82812 7.5584C5.57188 7.47637 5.0375 7.48418 4.79688 7.57403Z" fill="#97B00F"/>
<path d="M9.11875 9.19531C8.94063 9.27344 8.85313 9.35938 8.75625 9.53906C8.68125 9.67969 8.67188 9.73828 8.67188 10.0039C8.67188 10.2773 8.68125 10.3203 8.76562 10.4766C8.81875 10.5664 8.925 10.6875 9 10.7422L9.14062 10.8398H12H14.8594L15 10.7422C15.075 10.6875 15.1813 10.5664 15.2344 10.4766C15.3187 10.3203 15.3281 10.2773 15.3281 10C15.3281 9.72266 15.3187 9.67969 15.2344 9.52344C15.1813 9.43359 15.075 9.3125 15 9.25781L14.8594 9.16016L12.0469 9.15234C9.75625 9.14453 9.2125 9.15234 9.11875 9.19531Z" fill="#97B00F"/>
<path d="M10.1625 13.3989C9.76875 13.5317 9.54375 13.6919 9.24688 14.063C8.83438 14.5747 8.65625 15.1059 8.65625 15.8364C8.65313 17.7075 10.2094 18.9106 11.5625 18.0825C11.925 17.8598 12.2813 17.4184 12.4531 16.9809L12.5719 16.6801H13.7C14.9438 16.6801 14.9719 16.6723 15.1625 16.4223C15.4375 16.0551 15.3875 15.4184 15.0563 15.1333L14.9281 15.02L13.7531 15.0083L12.5781 14.9966L12.4406 14.6645C12.2063 14.0942 11.8125 13.6684 11.3063 13.4497C10.9875 13.3091 10.4875 13.2856 10.1625 13.3989Z" fill="#97B00F"/>
<path d="M1.04761 15.0556C0.625736 15.2899 0.525736 16.0556 0.863236 16.454C1.06636 16.6923 0.92261 16.6806 4.00699 16.6806C6.68824 16.6806 6.83511 16.6767 6.95386 16.6064C7.42261 16.3368 7.47886 15.497 7.05699 15.1337L6.92886 15.0204L4.03511 15.0126C1.67574 15.0048 1.12261 15.0126 1.04761 15.0556Z" fill="#97B00F"/>
</svg>
