<svg width="22" height="21" viewBox="0 0 22 21" fill="none" xmlns="http://www.w3.org/2000/svg">
<path fill-rule="evenodd" clip-rule="evenodd" d="M16.3958 10.7567C15.4458 10.7567 14.5541 10.9483 13.8041 11.2733C16.4291 12.0317 18.2874 13.8483 18.3374 15.9733C19.7041 15.7983 21.1791 15.2817 21.1791 13.8733C21.1791 12.1817 18.9874 10.7567 16.3958 10.7567Z" fill="#1977F2"/>
<path fill-rule="evenodd" clip-rule="evenodd" d="M16.3707 9.55668H16.3874C18.1624 9.55668 19.6124 8.10668 19.6124 6.34001C19.6124 4.56501 18.1624 3.11501 16.3874 3.11501C16.0374 3.11501 15.7041 3.17334 15.3874 3.27334C15.9624 4.12334 16.2957 5.14834 16.2957 6.25668C16.3041 7.38168 15.9541 8.46501 15.2957 9.36501C15.6374 9.49001 15.9957 9.55668 16.3707 9.55668Z" fill="#1977F2"/>
<path fill-rule="evenodd" clip-rule="evenodd" d="M8.18741 11.265C7.43741 10.9483 6.54574 10.7567 5.60407 10.7567C3.01241 10.7567 0.82074 12.1817 0.82074 13.8733C0.82074 15.2817 2.28741 15.79 3.65407 15.9733C3.69574 13.8483 5.55407 12.0317 8.18741 11.265Z" fill="#1977F2"/>
<path fill-rule="evenodd" clip-rule="evenodd" d="M5.60408 9.55668H5.62908C6.00408 9.55668 6.36241 9.49001 6.70408 9.36501C6.07074 8.49835 5.69574 7.42335 5.69574 6.25668C5.69574 5.14834 6.02908 4.12334 6.60408 3.27334C6.28741 3.17334 5.95408 3.11501 5.60408 3.11501C3.82908 3.11501 2.38741 4.56501 2.38741 6.34001C2.38741 8.10668 3.82908 9.55668 5.60408 9.55668Z" fill="#1977F2"/>
<path fill-rule="evenodd" clip-rule="evenodd" d="M10.9954 12.1209C7.69458 12.1209 4.90542 13.9175 4.90542 16.0442C4.90542 18.7942 9.48875 18.7942 10.9954 18.7942C13.6104 18.7942 17.0871 18.5109 17.0871 16.0617C17.0871 13.925 14.2971 12.1209 10.9954 12.1209Z" fill="#1977F2"/>
<path fill-rule="evenodd" clip-rule="evenodd" d="M10.9962 10.3117H11.0237C12.1029 10.3084 13.1162 9.88425 13.8762 9.11841C14.6371 8.35258 15.0537 7.33675 15.0496 6.25925C15.0496 4.02341 13.2321 2.20508 10.9962 2.20508C8.76124 2.20508 6.94374 4.02341 6.94374 6.25925C6.94374 8.49341 8.76124 10.3117 10.9962 10.3117Z" fill="#1977F2"/>
</svg>
