<svg width="53" height="53" viewBox="0 0 53 53" fill="none" xmlns="http://www.w3.org/2000/svg">
<g filter="url(#filter0_d_2178_24916)">
<rect x="6" y="2" width="41.2754" height="41.2754" rx="12" fill="url(#paint0_linear_2178_24916)"/>
</g>
<path d="M28.0291 12.6477C27.9041 12.696 27.7389 12.7807 27.6582 12.829C27.4648 12.95 27.1504 13.2966 27.0174 13.5424C26.9609 13.6512 26.6103 14.5218 26.2475 15.477C25.8807 16.4322 25.5341 17.3109 25.4736 17.4318C24.9939 18.3749 23.9218 19.5356 22.4627 20.6924L22.0273 21.035V26.5647V32.0944L22.5634 32.2596C23.825 32.6587 24.9577 32.9045 26.4611 33.0939C27.1302 33.1786 33.6398 33.2229 33.9986 33.1463C34.7402 32.9811 35.4133 32.3161 35.5866 31.5745C35.7035 31.0949 35.6511 30.5588 35.4496 30.1397C35.4053 30.051 35.369 29.9663 35.369 29.9543C35.369 29.9422 35.4456 29.8857 35.5423 29.8293C35.7922 29.6842 36.1469 29.2892 36.2961 28.999C36.4331 28.7209 36.5379 28.3139 36.5379 28.0277C36.5379 27.7496 36.4331 27.3224 36.3041 27.0604L36.1832 26.8267L36.3888 26.6574C37.1788 26.0165 37.4045 24.9485 36.9531 23.9973C36.8845 23.8522 36.7354 23.6628 36.5218 23.4532L36.1913 23.1308L36.3041 22.9091C36.4291 22.6632 36.5379 22.2199 36.5379 21.9418C36.5379 20.9826 35.8204 20.0878 34.8772 19.8661C34.6676 19.8178 34.2041 19.8057 32.2774 19.8057C30.9836 19.8057 29.9275 19.7976 29.9275 19.7896C29.9275 19.7815 29.9719 19.5518 30.0283 19.2777C30.4072 17.4318 30.5926 15.5899 30.4918 14.6871C30.3548 13.4296 30.0081 12.8814 29.198 12.6275C28.8392 12.5147 28.3233 12.5227 28.0291 12.6477Z" fill="#FEFEFE"/>
<path d="M17.0066 21.6235C16.922 21.6436 16.8051 21.7041 16.7527 21.7525C16.531 21.958 16.5431 21.688 16.5431 26.73V31.4013L16.6358 31.5383C16.8252 31.8204 16.7849 31.8164 18.9333 31.8164H20.8559V26.6978V21.5792L19.0139 21.5832C17.9982 21.5872 17.0953 21.6033 17.0066 21.6235Z" fill="#FEFEFE"/>
<defs>
<filter id="filter0_d_2178_24916" x="0.5" y="-2.38419e-07" width="52.2754" height="52.2754" filterUnits="userSpaceOnUse" color-interpolation-filters="sRGB">
<feFlood flood-opacity="0" result="BackgroundImageFix"/>
<feColorMatrix in="SourceAlpha" type="matrix" values="0 0 0 0 0 0 0 0 0 0 0 0 0 0 0 0 0 0 127 0" result="hardAlpha"/>
<feOffset dy="3.5"/>
<feGaussianBlur stdDeviation="2.75"/>
<feColorMatrix type="matrix" values="0 0 0 0 0 0 0 0 0 0 0 0 0 0 0 0 0 0 0.02 0"/>
<feBlend mode="normal" in2="BackgroundImageFix" result="effect1_dropShadow_2178_24916"/>
<feBlend mode="normal" in="SourceGraphic" in2="effect1_dropShadow_2178_24916" result="shape"/>
</filter>
<linearGradient id="paint0_linear_2178_24916" x1="6" y1="22.6377" x2="47.2754" y2="22.6377" gradientUnits="userSpaceOnUse">
<stop stop-color="#307040"/>
<stop offset="0.455" stop-color="#74B243"/>
<stop offset="0.8" stop-color="#96B032"/>
</linearGradient>
</defs>
</svg>
