<svg width="53" height="52" viewBox="0 0 53 52" fill="none" xmlns="http://www.w3.org/2000/svg">
<g filter="url(#filter0_d_2178_24927)">
<rect x="6" y="2" width="41" height="41" rx="12" fill="url(#paint0_linear_2178_24927)"/>
</g>
<path d="M21.6455 12.0813C20.8527 12.2175 20.0399 12.5178 19.4153 12.9062C17.8818 13.8672 16.8608 15.3768 16.5565 17.1386C16.4845 17.5631 16.4805 17.8033 16.4805 20.5622C16.4805 23.6535 16.4885 23.7976 16.6606 24.4744C17.0931 26.2002 18.2982 27.6857 19.9038 28.4786C20.5725 28.8109 21.121 28.9631 22.158 29.1032L22.2861 29.1232V30.6288C22.2861 32.0864 22.2901 32.1384 22.3702 32.2706C22.4143 32.3426 22.5063 32.4307 22.5664 32.4628C22.7025 32.5348 23.0188 32.5428 23.139 32.4788C23.187 32.4507 23.5073 32.1584 23.8477 31.8261C24.192 31.4937 24.6444 31.0933 24.8526 30.9331C26.0578 30.0282 27.4312 29.4476 28.9206 29.2153C29.1368 29.1833 29.8175 29.1393 30.4341 29.1192C31.6032 29.0832 31.9716 29.0392 32.5842 28.863C34.6342 28.2663 36.2758 26.5565 36.8003 24.4744C36.9725 23.7976 36.9805 23.6535 36.9805 20.5622C36.9805 17.8033 36.9765 17.5631 36.9044 17.1386C36.452 14.5119 34.43 12.5138 31.7754 12.0773C31.2989 12.0012 22.106 12.0052 21.6455 12.0813ZM22.8467 19.353C23.5434 19.6813 23.8276 20.5222 23.4633 21.1949C23.0349 21.9757 21.9818 22.1319 21.3572 21.5032C21.0689 21.2189 20.9849 20.9987 20.9849 20.5502C20.9849 20.2179 21.0009 20.1458 21.093 19.9696C21.4373 19.3209 22.2021 19.0527 22.8467 19.353ZM27.291 19.353C28.312 19.8335 28.316 21.259 27.299 21.7595C27.0708 21.8716 26.9947 21.8916 26.7305 21.8916C26.4662 21.8916 26.3901 21.8716 26.1619 21.7595C25.4933 21.4312 25.213 20.6623 25.5253 20.0177C25.7055 19.6493 25.8816 19.4731 26.234 19.3249C26.5543 19.1928 26.9707 19.2048 27.291 19.353ZM31.6433 19.3129C31.9195 19.421 32.2238 19.6893 32.368 19.9696C32.4601 20.1458 32.4761 20.2179 32.4761 20.5502C32.4761 20.8746 32.4601 20.9587 32.38 21.1308C32.0597 21.7755 31.2749 22.0758 30.6503 21.7835C30.2139 21.5833 29.9256 21.2149 29.8535 20.7705C29.6894 19.7734 30.6903 18.9606 31.6433 19.3129Z" fill="#FEFEFE"/>
<defs>
<filter id="filter0_d_2178_24927" x="0.5" y="-2.38419e-07" width="52" height="52" filterUnits="userSpaceOnUse" color-interpolation-filters="sRGB">
<feFlood flood-opacity="0" result="BackgroundImageFix"/>
<feColorMatrix in="SourceAlpha" type="matrix" values="0 0 0 0 0 0 0 0 0 0 0 0 0 0 0 0 0 0 127 0" result="hardAlpha"/>
<feOffset dy="3.5"/>
<feGaussianBlur stdDeviation="2.75"/>
<feColorMatrix type="matrix" values="0 0 0 0 0 0 0 0 0 0 0 0 0 0 0 0 0 0 0.02 0"/>
<feBlend mode="normal" in2="BackgroundImageFix" result="effect1_dropShadow_2178_24927"/>
<feBlend mode="normal" in="SourceGraphic" in2="effect1_dropShadow_2178_24927" result="shape"/>
</filter>
<linearGradient id="paint0_linear_2178_24927" x1="6" y1="22.5" x2="47" y2="22.5" gradientUnits="userSpaceOnUse">
<stop stop-color="#307040"/>
<stop offset="0.455" stop-color="#74B243"/>
<stop offset="0.8" stop-color="#96B032"/>
</linearGradient>
</defs>
</svg>
