<svg width="52" height="53" viewBox="0 0 52 53" fill="none" xmlns="http://www.w3.org/2000/svg">
<g filter="url(#filter0_d_2178_24957)">
<rect x="5.5" y="2.5" width="41" height="41" rx="12" fill="url(#paint0_linear_2178_24957)"/>
</g>
<path d="M19.8241 12.5853C18.9157 12.7495 18.0434 13.218 17.3591 13.9027C16.6628 14.6035 16.2027 15.4684 16.0426 16.4014C15.9546 16.91 15.9546 28.6426 16.0426 29.1512C16.1106 29.5356 16.2907 30.0842 16.4748 30.4446C16.9069 31.3055 17.7072 32.1023 18.5756 32.5428C18.9397 32.727 19.592 32.9352 19.9641 32.9873C20.1922 33.0193 22.0529 33.0273 26.4266 33.0193C32.553 33.0033 32.569 33.0033 32.8692 32.9192C33.8215 32.6509 34.4578 32.2865 35.094 31.6499C35.7903 30.9491 36.2505 30.0842 36.4105 29.1512C36.4986 28.6426 36.4986 16.91 36.4105 16.4014C36.2505 15.4684 35.7903 14.6035 35.094 13.9027C34.3937 13.206 33.5294 12.7455 32.597 12.5853C32.1129 12.5012 20.2922 12.5012 19.8241 12.5853ZM26.7027 17.7829C26.7908 17.843 26.9148 17.9671 26.9749 18.0592L27.0869 18.2274L27.1069 19.9733C27.1229 21.3748 27.1389 21.7352 27.1829 21.7872C27.231 21.8473 27.403 21.8553 28.9276 21.8553H30.6203L30.8324 21.9674C31.1445 22.1316 31.2805 22.3438 31.3005 22.6922C31.3246 23.0846 31.1645 23.3569 30.8084 23.5491C30.6523 23.6332 30.6043 23.6372 28.9276 23.6492C27.379 23.6572 27.2029 23.6652 27.1589 23.7253C27.1189 23.7774 27.1069 24.1938 27.1069 25.4752C27.1069 27.3853 27.1109 27.3572 26.7868 27.6295C26.4507 27.9178 26.0025 27.9178 25.6663 27.6295C25.3422 27.3572 25.3462 27.3853 25.3462 25.4752C25.3462 24.1938 25.3342 23.7774 25.2982 23.7253C25.2502 23.6652 25.0741 23.6572 23.5255 23.6492C21.8409 23.6372 21.8008 23.6372 21.6408 23.5491C21.2886 23.3609 21.1246 23.0566 21.1526 22.6521C21.1766 22.3358 21.3246 22.1156 21.6208 21.9634L21.8409 21.8553H23.5295H25.2222L25.2822 21.7672C25.3382 21.6911 25.3462 21.4549 25.3462 20.0013C25.3462 18.2033 25.3462 18.1993 25.5623 17.9471C25.7384 17.7348 25.9625 17.6427 26.2706 17.6588C26.4787 17.6708 26.5707 17.6948 26.7027 17.7829Z" fill="#FEFEFE"/>
<defs>
<filter id="filter0_d_2178_24957" x="-4.76837e-07" y="0.5" width="52" height="52" filterUnits="userSpaceOnUse" color-interpolation-filters="sRGB">
<feFlood flood-opacity="0" result="BackgroundImageFix"/>
<feColorMatrix in="SourceAlpha" type="matrix" values="0 0 0 0 0 0 0 0 0 0 0 0 0 0 0 0 0 0 127 0" result="hardAlpha"/>
<feOffset dy="3.5"/>
<feGaussianBlur stdDeviation="2.75"/>
<feColorMatrix type="matrix" values="0 0 0 0 0 0 0 0 0 0 0 0 0 0 0 0 0 0 0.02 0"/>
<feBlend mode="normal" in2="BackgroundImageFix" result="effect1_dropShadow_2178_24957"/>
<feBlend mode="normal" in="SourceGraphic" in2="effect1_dropShadow_2178_24957" result="shape"/>
</filter>
<linearGradient id="paint0_linear_2178_24957" x1="5.5" y1="23" x2="46.5" y2="23" gradientUnits="userSpaceOnUse">
<stop stop-color="#307040"/>
<stop offset="0.455" stop-color="#74B243"/>
<stop offset="0.8" stop-color="#96B032"/>
</linearGradient>
</defs>
</svg>
